<?xml version="1.0" encoding="UTF-8" standalone="no"?>
<!-- Created with Inkscape (http://www.inkscape.org/) -->

<svg
   xmlns:dc="http://purl.org/dc/elements/1.1/"
   xmlns:cc="http://creativecommons.org/ns#"
   xmlns:rdf="http://www.w3.org/1999/02/22-rdf-syntax-ns#"
   xmlns:svg="http://www.w3.org/2000/svg"
   xmlns="http://www.w3.org/2000/svg"
   xmlns:sodipodi="http://sodipodi.sourceforge.net/DTD/sodipodi-0.dtd"
   xmlns:inkscape="http://www.inkscape.org/namespaces/inkscape"
   id="svg3039"
   version="1.1"
   inkscape:version="0.48.4 r9939"
   width="236"
   height="214"
   sodipodi:docname="45insert.dxf">
  <metadata
     id="metadata3045">
    <rdf:RDF>
      <cc:Work
         rdf:about="">
        <dc:format>image/svg+xml</dc:format>
        <dc:type
           rdf:resource="http://purl.org/dc/dcmitype/StillImage" />
        <dc:title></dc:title>
      </cc:Work>
    </rdf:RDF>
  </metadata>
  <defs
     id="defs3043" />
  <sodipodi:namedview
     pagecolor="#ffffff"
     bordercolor="#666666"
     borderopacity="1"
     objecttolerance="10"
     gridtolerance="10"
     guidetolerance="10"
     inkscape:pageopacity="0"
     inkscape:pageshadow="2"
     inkscape:window-width="958"
     inkscape:window-height="1027"
     id="namedview3041"
     showgrid="false"
     inkscape:zoom="1.1028037"
     inkscape:cx="118"
     inkscape:cy="107"
     inkscape:window-x="0"
     inkscape:window-y="24"
     inkscape:window-maximized="0"
     inkscape:current-layer="svg3039" />
  <path
     style="fill:#000000"
     d="m 105.6633,201.49809 c -1.45764,-0.53413 -3.80135,-2.71056 -5.20824,-4.83652 -1.911579,-2.88858 -5.909862,-5.83982 -15.822092,-11.67866 -15.92294,-9.37949 -26.30425,-17.43054 -31.6834,-24.57152 -3.80235,-5.04774 -11.2429,-19.261 -12.40066,-23.68829 -0.37975,-1.45216 -1.3493,-2.09598 -3.15642,-2.09598 -1.54939,0 -4.05024,-1.32144 -6.16008,-3.25497 -3.24192,-2.97099 -3.64071,-3.95246 -4.57115,-11.25 -1.71665,-13.46397 0.64195,-26.788046 5.55981,-31.408136 3.92223,-3.68475 8.3885,-3.72346 15.49852,-0.13433 7.73975,3.90701 8.98539,6.36529 13.19763,26.045576 5.52781,25.82681 14.24878,41.32283 25.31057,44.97355 4.29488,1.41744 10.0269,-0.0589 11.593453,-2.98603 3.145469,-5.87738 -1.08333,-17.69851 -13.353733,-37.32882 -5.21078,-8.33626 -11.46119,-19.431836 -13.8898,-24.656836 -3.87846,-8.3443 -5.40177,-10.42552 -12.52176,-17.10785 -4.45837,-4.18432 -10.16178,-8.57412 -12.67426,-9.75512 -5.47128,-2.57181 -5.76505,-4.34244 -1.9805,-11.93704 3.30473,-6.63173 6.08336,-8.76603 12.52489,-9.62053 3.673,-0.48724 7.91865,-2.29798 14.57913,-6.21788 12.55474,-7.38886 26.497223,-13.91526 33.779702,-15.81211 6.44506,-1.67872 21.76237,-1.97945 30.02865,-0.58955 4.56486,0.76754 5.17405,0.63456 7,-1.528 2.16933,-2.56925 6.31671,-4.43192 9.868,-4.43192 2.84758,0 16.81607,6.79408 22.37836,10.88454 2.3355,1.7175 5.598,4.98861 7.25,7.26913 5.1669,7.1327 3.75179,12.7385 -4.61862,18.29614 -7.12698,4.73204 -11.05489,4.65893 -26.91511,-0.50095 -16.08933,-5.23443 -24.19532,-6.91008 -33.53113,-6.9315 -13.5528,-0.0311 -21.899882,3.80736 -24.076302,11.07161 -1.06025,3.53878 -0.96837,4.28248 0.82594,6.68576 1.30439,1.74709 4.106933,3.37296 7.918872,4.59407 5.2926,1.69542 8.883,1.87036 34.87605,1.69929 29.64088,-0.19508 36.96239,-0.92959 46.6588,-4.68093 2.40083,-0.92883 5.79762,-2.74592 7.54842,-4.03797 1.7508,-1.29206 3.80411,-2.34919 4.56291,-2.34919 3.39014,0 10.6802,11.40521 10.73185,16.78983 0.0121,1.25941 -0.82378,3.95941 -1.85746,6 -1.59565,3.14997 -1.95707,6.80544 -2.3937,24.210166 -0.42683,17.01403 -0.88337,21.77536 -2.68478,28 -2.45066,8.46805 -7.13459,17.40722 -13.02691,24.86157 -3.92467,4.96508 -3.98254,5.15744 -3.35569,11.15478 l 0.63784,6.10257 -5.28012,4.95724 c -6.49926,6.10182 -20.08191,13.03147 -26.80984,13.67794 -9.33534,0.897 -14.20738,-4.16854 -14.20738,-14.77164 0,-2.79498 0.64968,-6.33812 1.44373,-7.87365 0.79405,-1.53553 7.55065,-8.55009 15.01466,-15.5879 8.25252,-7.78132 15.35789,-15.48402 18.13071,-19.65494 4.91507,-7.39332 8.4109,-16.02842 8.4109,-20.77589 0,-6.85466 -4.24674,-12.09008 -9.80693,-12.09008 -2.89993,0 -4.41154,1.00125 -9.78435,6.48088 -5.03756,5.13771 -7.41101,8.7128 -11.45207,17.25 -2.80364,5.92302 -8.42421,17.51912 -12.49016,25.76912 -7.91241,16.05463 -10.40835,25.14258 -10.78765,39.27879 -0.16151,6.01936 -0.42106,6.78753 -2.67884,7.92843 -2.91416,1.47258 -12.31823,1.56792 -16.15026,0.16375 z m 16.42759,-74.9311 c 4.61101,-1.28049 10.04268,-5.88402 11.7198,-9.93295 1.87208,-4.5196 0.87518,-13.97314 -1.8818,-17.844956 -7.41991,-10.4203 -25.09481,-9.15435 -30.4746,2.182716 -2.010949,4.23776 -2.133719,12.80713 -0.23574,16.45498 2.03959,3.92003 5.85631,7.17506 10.2502,8.74169 4.71973,1.68282 5.84535,1.72505 10.62214,0.39852 z"
     id="path3049"
     inkscape:connector-curvature="0" />
</svg>
