999
Inkscape export via OpenSCAD DXF Export
  0
SECTION
  2
HEADER
  9
$ACADVER
  1
AC1014
  9
$HANDSEED
  5
FFFF
  9
$MEASUREMENT
 70
     1
  0
ENDSEC
  0
SECTION
  2
TABLES
  0
TABLE
  2
VPORT
  5
8
330
0
100
AcDbSymbolTable
 70
     4
  0
VPORT
  5
2E
330
8
100
AcDbSymbolTableRecord
100
AcDbViewportTableRecord
  2
*ACTIVE
 70
     0
 10
0.0
 20
0.0
 11
1.0
 21
1.0
 12
210.0
 22
148.5
 13
0.0
 23
0.0
 14
10.0
 24
10.0
 15
10.0
 25
10.0
 16
0.0
 26
0.0
 36
1.0
 17
0.0
 27
0.0
 37
0.0
 40
341.0
 41
1.24
 42
50.0
 43
0.0
 44
0.0
 50
0.0
 51
0.0
 71
     0
 72
   100
 73
     1
 74
     3
 75
     0
 76
     0
 77
     0
 78
     0
  0
ENDTAB
  0
TABLE
  2
LTYPE
  5
5
330
0
100
AcDbSymbolTable
 70
     1
  0
LTYPE
  5
14
330
5
100
AcDbSymbolTableRecord
100
AcDbLinetypeTableRecord
  2
BYBLOCK
 70
     0
  3

 72
    65
 73
     0
 40
0.0
  0
LTYPE
  5
15
330
5
100
AcDbSymbolTableRecord
100
AcDbLinetypeTableRecord
  2
BYLAYER
 70
     0
  3

 72
    65
 73
     0
 40
0.0
  0
LTYPE
  5
16
330
5
100
AcDbSymbolTableRecord
100
AcDbLinetypeTableRecord
  2
CONTINUOUS
 70
     0
  3
Solid line
 72
    65
 73
     0
 40
0.0
  0
ENDTAB
  0
TABLE
0
TABLE
2
LAYER
5
2
330
0
100
AcDbSymbolTable
70
1
0
LAYER
5
10
330
2
100
AcDbSymbolTableRecord
100
AcDbLayerTableRecord
2
Layer_1
70
0
62
7
6
CONTINUOUS
0
ENDTAB
0
ENDSEC
  0
ENDTAB
  0
TABLE
  2
STYLE
  5
3
330
0
100
AcDbSymbolTable
 70
     1
  0
STYLE
  5
11
330
3
100
AcDbSymbolTableRecord
100
AcDbTextStyleTableRecord
  2
STANDARD
 70
     0
 40
0.0
 41
1.0
 50
0.0
 71
     0
 42
2.5
  3
txt
  4

  0
ENDTAB
  0
TABLE
  2
VIEW
  5
6
330
0
100
AcDbSymbolTable
 70
     0
  0
ENDTAB
  0
TABLE
  2
UCS
  5
7
330
0
100
AcDbSymbolTable
 70
     0
  0
ENDTAB
  0
TABLE
  2
APPID
  5
9
330
0
100
AcDbSymbolTable
 70
     2
  0
APPID
  5
12
330
9
100
AcDbSymbolTableRecord
100
AcDbRegAppTableRecord
  2
ACAD
 70
     0
  0
ENDTAB
  0
TABLE
  2
DIMSTYLE
  5
A
330
0
100
AcDbSymbolTable
 70
     1
  0
DIMSTYLE
105
27
330
A
100
AcDbSymbolTableRecord
100
AcDbDimStyleTableRecord
  2
ISO-25
 70
     0
  3

  4

  5

  6

  7

 40
1.0
 41
2.5
 42
0.625
 43
3.75
 44
1.25
 45
0.0
 46
0.0
 47
0.0
 48
0.0
140
2.5
141
2.5
142
0.0
143
0.03937007874016
144
1.0
145
0.0
146
1.0
147
0.625
 71
     0
 72
     0
 73
     0
 74
     0
 75
     0
 76
     0
 77
     1
 78
     8
170
     0
171
     3
172
     1
173
     0
174
     0
175
     0
176
     0
177
     0
178
     0
270
     2
271
     2
272
     2
273
     2
274
     3
340
11
275
     0
280
     0
281
     0
282
     0
283
     0
284
     8
285
     0
286
     0
287
     3
288
     0
  0
ENDTAB
  0
TABLE
  2
BLOCK_RECORD
  5
1
330
0
100
AcDbSymbolTable
 70
     1
  0
BLOCK_RECORD
  5
1F
330
1
100
AcDbSymbolTableRecord
100
AcDbBlockTableRecord
  2
*MODEL_SPACE
  0
BLOCK_RECORD
  5
1B
330
1
100
AcDbSymbolTableRecord
100
AcDbBlockTableRecord
  2
*PAPER_SPACE
  0
ENDTAB
  0
ENDSEC
  0
SECTION
  2
BLOCKS
  0
BLOCK
  5
20
330
1F
100
AcDbEntity
  8
0
100
AcDbBlockBegin
  2
*MODEL_SPACE
 70
     0
 10
0.0
 20
0.0
 30
0.0
  3
*MODEL_SPACE
  1

  0
ENDBLK
  5
21
330
1F
100
AcDbEntity
  8
0
100
AcDbBlockEnd
  0
BLOCK
  5
1C
330
1B
100
AcDbEntity
 67
     1
  8
0
100
AcDbBlockBegin
  2
*PAPER_SPACE
  1

  0
ENDBLK
  5
1D
330
1B
100
AcDbEntity
 67
     1
  8
0
100
AcDbBlockEnd
  0
ENDSEC
  0
SECTION
  2
ENTITIES
0
DIMENSION
5
83
100
AcDbEntity
62
256
370
-1
6
ByLayer
1
total_width
3
Standard
70
0
71
5
72
1
41
1.0
100
AcDbAlignedDimension
13
7.370005
23
0.000000
33
0.0
14
57.796740
24
0.000000
34
0.0
50
0.000000
100
AcDbRotatedDimension
0
DIMENSION
5
83
100
AcDbEntity
62
256
370
-1
6
ByLayer
1
total_height
3
Standard
70
0
71
5
72
1
41
1.0
100
AcDbAlignedDimension
13
0.000000
23
3.246968
33
0.0
14
0.000000
24
55.420789
34
0.0
50
90.000000
100
AcDbRotatedDimension
0
DIMENSION
8
Layer_1
5
83
100
AcDbEntity
62
256
370
-1
6
ByLayer
1
Layer_1_width
3
Standard
70
0
71
5
72
1
41
1.0
100
AcDbAlignedDimension
13
7.370005
23
0.000000
33
0.0
14
57.796740
24
0.000000
34
0.0
50
0.000000
100
AcDbRotatedDimension
0
DIMENSION
8
Layer_1
5
83
100
AcDbEntity
62
256
370
-1
6
ByLayer
1
Layer_1_height
3
Standard
70
0
71
5
72
1
41
1.0
100
AcDbAlignedDimension
13
0.000000
23
3.246968
33
0.0
14
0.000000
24
55.420789
34
0.0
50
90.000000
100
AcDbRotatedDimension
0
LWPOLYLINE
100
AcDbPolyline
8
Layer_1
90
189
70
0
10
29.820531
20
3.528317
30
0.0
10
29.080220
20
4.042335
30
0.0
10
28.350650
20
4.893290
30
0.0
10
27.818734
20
5.520479
30
0.0
10
26.964713
20
6.229043
30
0.0
10
23.885304
20
8.189268
30
0.0
10
20.805814
20
10.106141
30
0.0
10
18.298540
20
11.893491
30
0.0
10
16.349208
20
13.562386
30
0.0
10
14.943545
20
15.123897
30
0.0
10
12.913788
20
18.532242
30
0.0
10
11.977578
20
20.437879
30
0.0
10
11.443803
20
21.809258
30
0.0
10
11.149460
20
22.258711
30
0.0
10
10.552991
20
22.400791
30
0.0
10
9.743050
20
22.655471
30
0.0
10
8.814480
20
23.319415
30
0.0
10
8.263840
20
23.879622
30
0.0
10
7.924808
20
24.449022
30
0.0
10
7.524399
20
26.494415
30
0.0
10
7.370005
20
29.299121
30
0.0
10
7.606798
20
31.862430
30
0.0
10
8.194667
20
33.957750
30
0.0
10
8.607720
20
34.759104
30
0.0
10
9.093501
20
35.358489
30
0.0
10
9.961755
20
35.945572
30
0.0
10
10.943140
20
36.147264
30
0.0
10
12.093213
20
35.964046
30
0.0
10
13.467528
20
35.396400
30
0.0
10
14.803848
20
34.563746
30
0.0
10
15.292496
20
34.050541
30
0.0
10
15.703189
20
33.390419
30
0.0
10
16.415865
20
31.382422
30
0.0
10
17.192193
20
28.045760
30
0.0
10
17.818992
20
25.449925
30
0.0
10
18.527459
20
23.132435
30
0.0
10
19.314773
20
21.098298
30
0.0
10
20.178116
20
19.352523
30
0.0
10
21.114669
20
17.900119
30
0.0
10
22.121613
20
16.746096
30
0.0
10
23.196129
20
15.895461
30
0.0
10
24.335398
20
15.353225
30
0.0
10
25.295824
20
15.199966
30
0.0
10
26.260111
20
15.314786
30
0.0
10
27.080024
20
15.659507
30
0.0
10
27.607328
20
16.195949
30
0.0
10
27.842300
20
16.897631
30
0.0
10
27.879955
20
17.762744
30
0.0
10
27.718084
20
18.797457
30
0.0
10
27.354481
20
20.007942
30
0.0
10
26.013251
20
22.980899
30
0.0
10
23.838608
20
26.730971
30
0.0
10
21.584156
20
30.539600
30
0.0
10
19.918598
20
33.689678
30
0.0
10
19.187218
20
35.172375
30
0.0
10
18.494700
20
36.279678
30
0.0
10
17.630651
20
37.299035
30
0.0
10
16.384679
20
38.517894
30
0.0
10
14.390260
20
40.212301
30
0.0
10
12.807721
20
41.271005
30
0.0
10
11.918763
20
41.802191
30
0.0
10
11.548675
20
42.423876
30
0.0
10
11.668375
20
43.311350
30
0.0
10
12.248780
20
44.639903
30
0.0
10
12.938914
20
45.819819
30
0.0
10
13.684203
20
46.608891
30
0.0
10
14.595481
20
47.092250
30
0.0
10
15.783582
20
47.355031
30
0.0
10
17.524684
20
47.869153
30
0.0
10
19.898136
20
49.109855
30
0.0
10
25.222809
20
51.922357
30
0.0
10
27.573124
20
52.942515
30
0.0
10
29.431519
20
53.572383
30
0.0
10
31.194996
20
53.853415
30
0.0
10
33.476149
20
53.980338
30
0.0
10
35.853676
20
53.944879
30
0.0
10
37.906271
20
53.738768
30
0.0
10
39.183917
20
53.644283
30
0.0
10
39.536912
20
53.814681
30
0.0
10
39.881827
20
54.170003
30
0.0
10
40.434322
20
54.671340
30
0.0
10
41.128054
20
55.067309
30
0.0
10
41.894914
20
55.327321
30
0.0
10
42.666796
20
55.420789
30
0.0
10
43.771906
20
55.103152
30
0.0
10
45.537324
20
54.317767
30
0.0
10
47.446396
20
53.315929
30
0.0
10
48.982466
20
52.348930
30
0.0
10
50.077859
20
51.382762
30
0.0
10
51.028577
20
50.297420
30
0.0
10
51.772294
20
48.861943
30
0.0
10
51.879842
20
48.192577
30
0.0
10
51.809537
20
47.548938
30
0.0
10
51.560146
20
46.926136
30
0.0
10
51.130432
20
46.319280
30
0.0
10
49.725100
20
45.133843
30
0.0
10
48.319115
20
44.387742
30
0.0
10
46.851347
20
44.157638
30
0.0
10
44.921445
20
44.450981
30
0.0
10
42.129058
20
45.275222
30
0.0
10
39.105307
20
46.203256
30
0.0
10
36.682696
20
46.805044
30
0.0
10
34.617457
20
47.130977
30
0.0
10
32.665828
20
47.231446
30
0.0
10
30.076876
20
47.035221
30
0.0
10
28.064394
20
46.441210
30
0.0
10
27.282307
20
45.998703
30
0.0
10
26.653912
20
45.461153
30
0.0
10
26.182399
20
44.830026
30
0.0
10
25.870961
20
44.106791
30
0.0
10
25.685402
20
43.043182
30
0.0
10
26.104059
20
42.219921
30
0.0
10
26.956118
20
41.515981
30
0.0
10
28.338941
20
40.923373
30
0.0
10
29.475429
20
40.639788
30
0.0
10
31.069541
20
40.486047
30
0.0
10
38.181737
20
40.443795
30
0.0
10
43.383552
20
40.524557
30
0.0
10
46.876602
20
40.727956
30
0.0
10
49.314258
20
41.119540
30
0.0
10
51.349887
20
41.764858
30
0.0
10
53.480219
20
42.904462
30
0.0
10
54.767974
20
43.567456
30
0.0
10
55.172217
20
43.426180
30
0.0
10
55.642807
20
43.040773
30
0.0
10
56.635681
20
41.768097
30
0.0
10
57.451892
20
40.210484
30
0.0
10
57.796740
20
38.828993
30
0.0
10
57.645311
20
38.065001
30
0.0
10
57.272524
20
37.135660
30
0.0
10
56.994315
20
36.383765
30
0.0
10
56.812083
20
35.227965
30
0.0
10
56.596969
20
30.303013
30
0.0
10
56.363593
20
25.210025
30
0.0
10
56.155196
20
23.701390
30
0.0
10
55.839264
20
22.400791
30
0.0
10
55.206883
20
20.592082
30
0.0
10
54.365265
20
18.785264
30
0.0
10
53.341525
20
17.032087
30
0.0
10
52.162781
20
15.384303
30
0.0
10
51.522645
20
14.539273
30
0.0
10
51.207553
20
13.919487
30
0.0
10
51.133312
20
13.245078
30
0.0
10
51.215730
20
12.236176
30
0.0
10
51.395743
20
10.513895
30
0.0
10
49.905576
20
9.114852
30
0.0
10
48.216533
20
7.810852
30
0.0
10
46.146610
20
6.607385
30
0.0
10
44.064587
20
5.692597
30
0.0
10
42.339243
20
5.254633
30
0.0
10
41.410524
20
5.238346
30
0.0
10
40.601248
20
5.378412
30
0.0
10
39.912767
20
5.673426
30
0.0
10
39.346434
20
6.121982
30
0.0
10
38.903599
20
6.722675
30
0.0
10
38.585614
20
7.474099
30
0.0
10
38.329605
20
9.423519
30
0.0
10
38.449294
20
10.667870
30
0.0
10
38.737057
20
11.645638
30
0.0
10
40.149889
20
13.262939
30
0.0
10
42.974528
20
16.044889
30
0.0
10
46.112908
20
19.200520
30
0.0
10
48.091417
20
21.591950
30
0.0
10
49.047515
20
23.199961
30
0.0
10
49.798467
20
24.803678
30
0.0
10
50.289330
20
26.267386
30
0.0
10
50.465160
20
27.455368
30
0.0
10
50.253372
20
28.804640
30
0.0
10
49.669747
20
29.886864
30
0.0
10
48.791895
20
30.606363
30
0.0
10
47.697427
20
30.867457
30
0.0
10
47.133925
20
30.799141
30
0.0
10
46.578459
20
30.532861
30
0.0
10
44.936066
20
29.038409
30
0.0
10
43.214588
20
26.964022
30
0.0
10
41.704037
20
24.170076
30
0.0
10
38.179036
20
16.897457
30
0.0
10
36.776313
20
13.814898
30
0.0
10
35.859525
20
11.151751
30
0.0
10
35.341364
20
8.590120
30
0.0
10
35.134522
20
5.812110
30
0.0
10
34.978363
20
4.177017
30
0.0
10
34.759030
20
3.821098
30
0.0
10
34.378494
20
3.574531
30
0.0
10
33.471429
20
3.336253
30
0.0
10
32.196654
20
3.246968
30
0.0
10
30.873308
20
3.309911
30
0.0
10
29.820531
20
3.528317
30
0.0
10
29.820531
20
3.528317
30
0.0
0
LWPOLYLINE
100
AcDbPolyline
8
Layer_1
90
28
70
0
10
34.456762
20
24.675538
30
0.0
10
35.456011
20
25.105320
30
0.0
10
36.421060
20
25.784195
30
0.0
10
37.230857
20
26.609566
30
0.0
10
37.764350
20
27.478838
30
0.0
10
38.013680
20
28.650203
30
0.0
10
37.988716
20
30.065516
30
0.0
10
37.718798
20
31.446551
30
0.0
10
37.233265
20
32.515081
30
0.0
10
36.324756
20
33.464187
30
0.0
10
35.219497
20
34.109436
30
0.0
10
33.992067
20
34.456170
30
0.0
10
32.717047
20
34.509730
30
0.0
10
31.469016
20
34.275458
30
0.0
10
30.322554
20
33.758697
30
0.0
10
29.352240
20
32.964787
30
0.0
10
28.632655
20
31.899070
30
0.0
10
28.307505
20
30.813667
30
0.0
10
28.185695
20
29.514657
30
0.0
10
28.270732
20
28.246864
30
0.0
10
28.566124
20
27.255109
30
0.0
10
29.086586
20
26.465072
30
0.0
10
29.763378
20
25.772491
30
0.0
10
30.564752
20
25.204445
30
0.0
10
31.458958
20
24.788010
30
0.0
10
32.951821
20
24.413284
30
0.0
10
34.456762
20
24.675538
30
0.0
10
34.456762
20
24.675538
30
0.0
  0
ENDSEC
  0
SECTION
  2
OBJECTS
  0
DICTIONARY
  5
C
330
0
100
AcDbDictionary
  3
ACAD_GROUP
350
D
  3
ACAD_MLINESTYLE
350
17
  0
DICTIONARY
  5
D
330
C
100
AcDbDictionary
  0
DICTIONARY
  5
1A
330
C
100
AcDbDictionary
  0
DICTIONARY
  5
17
330
C
100
AcDbDictionary
  3
STANDARD
350
18
  0
DICTIONARY
  5
19
330
C
100
AcDbDictionary
  0
ENDSEC
  0
EOF
